<?xml version="1.0" encoding="utf-8"?>
<!-- Generator: Adobe Illustrator 28.4.1, SVG Export Plug-In . SVG Version: 6.00 Build 0)  -->
<svg version="1.1" id="Layer_1" xmlns="http://www.w3.org/2000/svg" xmlns:xlink="http://www.w3.org/1999/xlink" x="0px" y="0px"
	 viewBox="0 0 1190 841" style="enable-background:new 0 0 1190 841;" xml:space="preserve">
<style type="text/css">
	.st0{fill:none;}
	.st1{fill:#1A6B2F;}
	.st2{fill:url(#SVGID_00000021828114457323602150000007497567720321278866_);}
	.st3{fill:#F5F0E0;stroke:#8B7D3A;stroke-width:1.5;}
	.st4{fill:none;stroke:#0F4A1F;stroke-width:16;}
	.st5{opacity:0.18;fill:#FFFFFF;enable-background:new    ;}
	.st6{font-family:'MyriadPro-Regular';}
	.st7{font-size:32px;}
	.st8{fill:#2D7A1F;stroke:#1A4F10;stroke-width:2;}
	.st9{fill:#FFFFFF;}
	.st10{font-family:'Arial-Black';}
	.st11{font-size:13px;}
	.st12{fill:#C8E6A0;}
	.st13{font-family:'Arial-BoldMT';}
	.st14{font-size:7px;}
	.st15{fill:#2D5A1B;}
	.st16{font-size:18px;}
	.st17{fill:#1E5C14;stroke:#0F3A08;stroke-width:1.5;}
	.st18{fill:#A8E87C;}
	.st19{font-family:'ArialMT';}
	.st20{font-size:21px;}
	.st21{font-size:10px;}
	.st22{fill:#B01010;stroke:#6E0A0A;stroke-width:1.5;}
	.st23{fill:none;stroke:#FFFFFF;stroke-miterlimit:10;}
	.st24{font-size:20px;}
	.st25{fill:#FFC0C0;}
	.st26{stroke:#8B7D3A;stroke-dasharray:3,3;}
	.st27{fill:#F5F0E0;stroke:#8B7D3A;}
	.st28{font-size:12.963px;}
	.st29{fill:#F5F0E0;stroke:#8B7D3A;stroke-width:2;}
	.st30{fill:#C8960A;stroke:#8B6800;stroke-width:2;}
	.st31{fill:#F7F2E3;stroke:#8B7D3A;stroke-width:3;}
	.st32{fill:none;stroke:#1A4A0D;stroke-width:3;stroke-linecap:round;}
	.st33{fill:#1A4A0D;}
	.st34{font-size:67.6394px;}
	.st35{letter-spacing:2;}
	.st36{fill:#C8960A;}
	.st37{font-size:72px;}
	.st38{fill:#5A4A1A;}
	.st39{letter-spacing:9;}
	.st40{fill:#FFFFFF;stroke:#2D7A1F;stroke-width:5;}
	.st41{fill:none;stroke:#2D7A1F;stroke-width:2.5;}
	.st42{fill:none;stroke:#2D7A1F;stroke-width:5;}
	.st43{fill:none;stroke:#AAAAAA;stroke-width:0.75;}
	.st44{fill:#0F4A1F;}
</style>
<pattern  y="841" width="8" height="841" patternUnits="userSpaceOnUse" id="SVGID_1_" viewBox="0 -841 8 841" style="overflow:visible;">
	<g>
		<rect y="-841" class="st0" width="8" height="841"/>
		<g>
			<rect y="-841" class="st0" width="8" height="841"/>
			<rect y="-841" class="st0" width="8" height="841"/>
			<line class="st0" x1="4" y1="-841" x2="4" y2="0"/>
		</g>
	</g>
</pattern>
<path class="st1" d="M0,0h1190v841c0,0-60,0-153,0c-8.5,0-17.2,0-26.1,0c-28.9,0-57.9,0-87.1,0c-10.4,0-20.9,0-31.5,0
	C539.7,841,0,841,0,841V0z"/>
<pattern  id="SVGID_00000108291188909420048100000010258396901831200130_" xlink:href="#SVGID_1_" patternTransform="matrix(1 0 0 1 8 17224)">
</pattern>
<path style="fill:url(#SVGID_00000108291188909420048100000010258396901831200130_);" d="M0,0h1190v841c0,0-60,0-153,0
	c-8.5,0-17.2,0-26.1,0c-28.9,0-57.9,0-87.1,0c-10.4,0-20.9,0-31.5,0C539.7,841,0,841,0,841V0z"/>
<path class="st3" d="M693,760.1h94c0.6,0,1,0.4,1,1v60c0,0.6-0.4,1-1,1h-94c-0.6,0-1-0.4-1-1v-60C692,760.6,692.4,760.1,693,760.1z"
	/>
<path class="st4" d="M16,12h1158c2.2,0,4,1.8,4,4v809c0,2.2-1.8,4-4,4c0,0-52.4,0-135,0c-8.3,0-16.8,0-25.6,0c-29.5,0-57.5,0-86.4,0
	c-10.4,0-20.9,0-31.6,0C552.8,829,16,829,16,829c-2.2,0-4-1.8-4-4V16C12,13.8,13.8,12,16,12z"/>
<text transform="matrix(1 0 0 1 30 54)" class="st5 st6 st7">☘</text>
<text transform="matrix(1 0 0 1 1130 54)" class="st5 st6 st7">☘</text>
<text transform="matrix(1 0 0 1 30 826)" class="st5 st6 st7">☘</text>
<text transform="matrix(1 0 0 1 1130 826)" class="st5 st6 st7">☘</text>
<path class="st8" d="M22,20h92c1.1,0,2,0.9,2,2v58c0,1.1-0.9,2-2,2H22c-1.1,0-2-0.9-2-2V22C20,20.9,20.9,20,22,20z"/>
<text transform="matrix(1 0 0 1 41.8042 41)" class="st9 st10 st11">START</text>
<text transform="matrix(1 0 0 1 33.2644 75)" class="st12 st13 st14">ROLL 6 TO ENTER</text>
<path class="st3" d="M117,20h94c0.6,0,1,0.4,1,1v60c0,0.6-0.4,1-1,1h-94c-0.6,0-1-0.4-1-1V21C116,20.4,116.4,20,117,20z"/>
<text transform="matrix(1 0 0 1 161.807 50)" class="st15 st10 st16">1</text>
<path class="st3" d="M213,20h94c0.6,0,1,0.4,1,1v60c0,0.6-0.4,1-1,1h-94c-0.6,0-1-0.4-1-1V21C212,20.4,212.4,20,213,20z"/>
<text transform="matrix(1.0274 0 0 1 256.3315 50.1016)" class="st15 st10 st16">2</text>
<path class="st17" d="M309,20h94c0.6,0,1,0.4,1,1v60c0,0.6-0.4,1-1,1h-94c-0.6,0-1-0.4-1-1V21C308,20.4,308.4,20,309,20z"/>
<text transform="matrix(1 0 0 1 350.9946 40)" class="st18 st19 st20">»</text>
<text transform="matrix(1 0 0 1 323.6758 54)" class="st9 st10 st21">MOVE AHEAD</text>
<text transform="matrix(1 0 0 1 332.6328 66)" class="st9 st10 st21">2 SPACES</text>
<path class="st3" d="M405,20h94c0.6,0,1,0.4,1,1v60c0,0.6-0.4,1-1,1h-94c-0.6,0-1-0.4-1-1V21C404,20.4,404.4,20,405,20z"/>
<path class="st3" d="M501,20h94c0.6,0,1,0.4,1,1v60c0,0.6-0.4,1-1,1h-94c-0.6,0-1-0.4-1-1V21C500,20.4,500.4,20,501,20z"/>
<text transform="matrix(1 0 0 1 439.1094 50)" class="st15 st10 st16">4</text>
<path class="st22" d="M597,20h94c0.6,0,1,0.4,1,1v60c0,0.6-0.4,1-1,1h-94c-0.6,0-1-0.4-1-1V21C596,20.4,596.4,20,597,20z"/>
<text transform="matrix(1 0 0 1 636.5 44)" class="st23 st6 st24">✕</text>
<text transform="matrix(1 0 0 1 617.3864 58)" class="st25 st10 st21">LOSE NEXT</text>
<text transform="matrix(1 0 0 1 630.736 70)" class="st25 st10 st21">TURN</text>
<path class="st3" d="M693,20h94c0.6,0,1,0.4,1,1v60c0,0.6-0.4,1-1,1h-94c-0.6,0-1-0.4-1-1V21C692,20.4,692.4,20,693,20z"/>
<text transform="matrix(1 0 0 1 542.0391 50)" class="st15 st10 st16">5</text>
<path class="st3" d="M789,20h94c0.6,0,1,0.4,1,1v60c0,0.6-0.4,1-1,1h-94c-0.6,0-1-0.4-1-1V21C788,20.4,788.4,20,789,20z"/>
<path class="st3" d="M885,20h94c0.6,0,1,0.4,1,1v60c0,0.6-0.4,1-1,1h-94c-0.6,0-1-0.4-1-1V21C884,20.4,884.4,20,885,20z"/>
<text transform="matrix(1 0 0 1 740.791 50)" class="st15 st10 st16">7</text>
<path class="st3" d="M981,20h94c0.6,0,1,0.4,1,1v60c0,0.6-0.4,1-1,1h-94c-0.6,0-1-0.4-1-1V21C980,20.4,980.4,20,981,20z"/>
<text transform="matrix(1 0 0 1 831.1753 52.5176)" class="st15 st10 st16">8</text>
<rect x="1076" y="20" class="st1" width="94" height="62"/>
<path class="st3" d="M1077,20h92c0.6,0,1,0.4,1,1v98c0,0.6-0.4,1-1,1h-92c-0.6,0-1-0.4-1-1V21C1076,20.4,1076.4,20,1077,20z"/>
<text transform="matrix(1 0 0 1 925 50)" class="st15 st10 st16">9</text>
<path class="st3" d="M1077,120h92c0.6,0,1,0.4,1,1v98c0,0.6-0.4,1-1,1h-92c-0.6,0-1-0.4-1-1v-98C1076,120.4,1076.4,120,1077,120z"/>
<text transform="matrix(1 0 0 1 1029.4756 50)" class="st15 st10 st16">10</text>
<path class="st17" d="M1077,220h92c0.6,0,1,0.4,1,1v98c0,0.6-0.4,1-1,1h-92c-0.6,0-1-0.4-1-1v-98C1076,220.4,1076.4,220,1077,220z"
	/>
<text transform="matrix(1 0 0 1 1117.9946 258)" class="st18 st19 st20">»</text>
<text transform="matrix(1 0 0 1 1096.9038 276)" class="st9 st10 st21">MOVE AHEAD</text>
<text transform="matrix(1 0 0 1 1104.3037 288)" class="st9 st10 st21">2 SPACES</text>
<path class="st22" d="M1077,320h92c0.6,0,1,0.4,1,1v98c0,0.6-0.4,1-1,1h-92c-0.6,0-1-0.4-1-1v-98C1076,320.4,1076.4,320,1077,320z"
	/>
<text transform="matrix(1 0 0 1 1115.5 362)" class="st23 st6 st24">✕</text>
<text transform="matrix(1 0 0 1 1100.8943 382)" class="st25 st10 st21">LOSE NEXT</text>
<text transform="matrix(1 0 0 1 1111.9189 394)" class="st25 st10 st21">TURN</text>
<path class="st3" d="M1077,420h92c0.6,0,1,0.4,1,1v98c0,0.6-0.4,1-1,1h-92c-0.6,0-1-0.4-1-1v-98C1076,420.4,1076.4,420,1077,420z"/>
<text transform="matrix(1 0 0 1 1110 70)" class="st15 st10 st16">11</text>
<path class="st3" d="M1074,520h95c0.6,0,1,0.5,1,1v101.5c0,0.6-0.5,1-1,1c0,0-3.8,0-9.9,0c-29.4-1-60.4,8.3-84.1-4.1
	c-5.2-2.1-2.1-20.7-2-32.6c0-9.7,0-20.3,0-30.1c0-19.5,0-35.7,0-35.7C1072.9,520.5,1073.4,520,1074,520z"/>
<path class="st3" d="M1077,620c27,0,55,0,82.4,0c5.9,0,9.6,0,9.6,0c0.6,0,1,0.4,1,1v98c0,0.6-0.4,1-1,1h-92c-0.6,0-1-0.4-1-1
	c0,0,0-35.3,0-63.5c0-9.4,0-18,0-24.3s0-10.2,0-10.2C1076,620.4,1076.5,620,1077,620z"/>
<path class="st3" d="M1077,689h92c0.6,0,1,0.4,1,1v99c0,0.6-0.4,1-1,1h-92c-0.6,0-1-0.4-1-1v-99C1076,689.4,1076.4,689,1077,689z"/>
<text transform="matrix(0.6608 0 0 1 1119.4014 470)" class="st15 st10 st16">15</text>
<circle class="st26" cx="1123" cy="796" r="14"/>
<rect x="1076" y="760.5" class="st27" width="94" height="62"/>
<path class="st17" d="M789,759h94c0.6,0,1,0.4,1,1v60c0,0.6-0.4,1-1,1h-94c-0.6,0-1-0.4-1-1v-60C788,759.4,788.4,759,789,759z"/>
<text transform="matrix(1 0 0 1 830.9946 779)" class="st18 st19 st20">»</text>
<text transform="matrix(1 0 0 1 806.1758 795)" class="st9 st10 st21">MOVE AHEAD</text>
<text transform="matrix(1 0 0 1 814.6328 807)" class="st9 st10 st21">2 SPACES</text>
<path class="st3" d="M885,760.5h94c0.6,0,1,0.4,1,1v60c0,0.6-0.4,1-1,1h-94c-0.6,0-1-0.4-1-1v-60C884,760.9,884.4,760.5,885,760.5z"
	/>
<path class="st3" d="M597,759h94c0.6,0,1,0.4,1,1v60c0,0.6-0.4,1-1,1h-94c-0.6,0-1-0.4-1-1v-60C596,759.4,596.4,759,597,759z"/>
<text transform="matrix(1 0 0 1 636 790)" class="st15 st10 st16">24</text>
<path class="st22" d="M501,759h94c0.6,0,1,0.4,1,1v60c0,0.6-0.4,1-1,1h-94c-0.6,0-1-0.4-1-1v-60C500,759.4,500.4,759,501,759z"/>
<text transform="matrix(1 0 0 1 540.5 783)" class="st23 st6 st24">✕</text>
<text transform="matrix(0.7714 0 0 1 522.7363 800.541)" class="st25 st10 st28">LOSE NEXT</text>
<text transform="matrix(1 0 0 1 535.3359 810)" class="st25 st10 st21">TURN</text>
<path class="st3" d="M405,759h94c0.6,0,1,0.4,1,1v60c0,0.6-0.4,1-1,1h-94c-0.6,0-1-0.4-1-1v-60C404,759.4,404.4,759,405,759z"/>
<path class="st3" d="M309,759h94c0.6,0,1,0.4,1,1v60c0,0.6-0.4,1-1,1h-94c-0.6,0-1-0.4-1-1v-60C308,759.4,308.4,759,309,759z"/>
<path class="st3" d="M213,759h94c0.6,0,1,0.4,1,1v60c0,0.6-0.4,1-1,1h-94c-0.6,0-1-0.4-1-1v-60C212,759.4,212.4,759,213,759z"/>
<path class="st29" d="M117,759h94c0.6,0,1,0.4,1,1v60c0,0.6-0.4,1-1,1h-94c-0.6,0-1-0.4-1-1v-60C116,759.4,116.4,759,117,759z"/>
<text transform="matrix(1 0 0 1 733 790)" class="st15 st10 st16">23</text>
<rect x="20" y="759" class="st29" width="96" height="62"/>
<path class="st30" d="M22,20h92c1.1,0,2,0.9,2,2v96c0,1.1-0.9,2-2,2H22c-1.1,0-2-0.9-2-2V22C20,20.9,20.9,20,22,20z"/>
<text transform="matrix(1 0 0 1 40.0823 82)" class="st9 st10 st16">FINISH</text>
<path class="st3" d="M21,120h94c0.6,0,1,0.4,1,1v98c0,0.6-0.4,1-1,1H21c-0.6,0-1-0.4-1-1v-98C20,120.4,20.4,120,21,120z"/>
<text transform="matrix(1 0 0 1 152 790)" class="st15 st10 st16">29</text>
<path class="st3" d="M21,220h94c0.6,0,1,0.4,1,1v98c0,0.6-0.4,1-1,1H21c-0.6,0-1-0.4-1-1v-98C20,220.4,20.4,220,21,220z"/>
<text transform="matrix(1 0 0 1 247 790)" class="st15 st10 st16">28</text>
<path class="st22" d="M21,320h94c0.6,0,1,0.4,1,1v98c0,0.6-0.4,1-1,1H21c-0.6,0-1-0.4-1-1v-98C20,320.4,20.4,320,21,320z"/>
<text transform="matrix(1 0 0 1 60.5 362)" class="st23 st6 st24">✕</text>
<text transform="matrix(1 0 0 1 29.9998 374.7197)" class="st25 st10 st21">LOSE NEXT</text>
<text transform="matrix(1.5619 0 0 1 37.6143 387.9434)" class="st25 st10 st21">TURN</text>
<path class="st3" d="M21,420h94c0.6,0,1,0.4,1,1v98c0,0.6-0.4,1-1,1H21c-0.6,0-1-0.4-1-1v-98C20,420.4,20.4,420,21,420z"/>
<text transform="matrix(1 0 0 1 348 790)" class="st15 st10 st16">27</text>
<path class="st17" d="M21,520h94c0.6,0,1,0.4,1,1v98c0,0.6-0.4,1-1,1H21c-0.6,0-1-0.4-1-1v-98C20,520.4,20.4,520,21,520z"/>
<text transform="matrix(1 0 0 1 62.9946 558)" class="st18 st19 st20">»</text>
<text transform="matrix(1 0 0 1 26.1182 570)" class="st9 st10 st21">MOVE AHEAD</text>
<text transform="matrix(1 0 0 1 37.9736 580.7197)" class="st9 st10 st21">2 SPACES</text>
<path class="st3" d="M21,620h94c0.6,0,1,0.4,1,1v137c0,0.6-0.4,1-1,1H21c-0.6,0-1-0.4-1-1V621C20,620.4,20.4,620,21,620z"/>
<text transform="matrix(1 0 0 1 444 790)" class="st15 st10 st16">26</text>
<path class="st31" d="M118,82h956c1.1,0,2,0.9,2,2c0,0,0,248.1,0,443c0,11.5,0,22.7,0,33.8c0,21.2,0,42.2,0,62.8
	c0,9.8,0,19.3,0,28.3c0,63.1,0,105.2,0,105.2c0,1.1-0.9,2-2,2H118c-1.1,0-2-0.9-2-2V84C116,82.9,116.9,82,118,82z"/>
<line class="st32" x1="310" y1="118" x2="354" y2="118"/>
<line class="st32" x1="316" y1="128" x2="354" y2="128"/>
<line class="st32" x1="310" y1="138" x2="354" y2="138"/>
<line class="st32" x1="836" y1="118" x2="880" y2="118"/>
<line class="st32" x1="836" y1="128" x2="874" y2="128"/>
<line class="st32" x1="836" y1="138" x2="880" y2="138"/>
<text transform="matrix(0.9903 0 0 1 430.0024 144.2598)" class="st33 st10 st34 st35">Grid</text>
<text transform="matrix(1 0 0 1 586.666 144.2598)" class="st36 st10 st37 st35">Rush</text>
<text transform="matrix(1 0 0 1 478.8892 160.6582)" class="st38 st13 st16 st39">— THE LOGIC RACE —</text>
<path class="st40" d="M334,222h524c2.2,0,4,1.8,4,4v372c0,2.2-1.8,4-4,4H334c-2.2,0-4-1.8-4-4V226C330,223.8,331.8,222,334,222z"/>
<rect x="338" y="230" class="st9" width="516" height="364"/>
<line class="st41" x1="424" y1="222" x2="424" y2="602"/>
<line class="st41" x1="510" y1="222" x2="510" y2="602"/>
<line class="st42" x1="596" y1="222" x2="596" y2="602"/>
<line class="st41" x1="682" y1="222" x2="682" y2="602"/>
<line class="st41" x1="768" y1="222" x2="768" y2="602"/>
<line class="st43" x1="338" y1="351" x2="854" y2="351"/>
<line class="st42" x1="332" y1="470" x2="863.5" y2="470"/>
<line class="st42" x1="330" y1="351" x2="862" y2="351"/>
<line class="st41" x1="328" y1="412" x2="862" y2="412"/>
<line class="st41" x1="330" y1="533" x2="862" y2="533"/>
<path class="st44" d="M22,824c0,0,531.2,0,870.3,0c10.6,0,21,0,31.2,0c28.4,0,57.4,0,85.6,0c8.7,0,17.1,0,25.3,0
	c81.7,0,133.6,0,133.6,0c1.1,0,2,0.9,2,2v6c0,1.1-0.9,2-2,2c0,0-51.9,0-133.6,0c-8.2,0-16.6,0-25.3,0c-28.1,0-57.1,0-85.6,0
	c-10.2,0-20.7,0-31.3,0c-339,0-870.2,0-870.2,0c-1.1,0-2-0.9-2-2v-6C20,824.9,20.9,824,22,824z"/>
<line class="st41" x1="332" y1="291" x2="863.5" y2="291"/>
<path class="st3" d="M981,760.1h94c0.6,0,1,0.4,1,1v60c0,0.6-0.4,1-1,1h-94c-0.6,0-1-0.4-1-1v-60C980,760.6,980.4,760.1,981,760.1z"
	/>
<text transform="matrix(1 0 0 1 1025 790)" class="st15 st10 st16">20</text>
<text transform="matrix(1 0 0 1 929.4678 790)" class="st15 st10 st16">21</text>
<text transform="matrix(1 0 0 1 1108.9995 728.8975)" class="st15 st10 st16">18</text>
<text transform="matrix(1 0 0 1 1107 170)" class="st15 st10 st16">12</text>
<text transform="matrix(1 0 0 1 1107 572)" class="st15 st10 st16">16</text>
<text transform="matrix(1 0 0 1 1107 659)" class="st15 st10 st16">17</text>
<text transform="matrix(1 0 0 1 1108.4756 790)" class="st15 st10 st16">19</text>
<text transform="matrix(1 0 0 1 44.6299 790)" class="st15 st10 st16">30</text>
<text transform="matrix(1 0 0 1 44 688)" class="st15 st10 st16">31</text>
<text transform="matrix(1 0 0 1 44 470)" class="st15 st10 st16">33</text>
<text transform="matrix(1 0 0 1 44 270)" class="st15 st10 st16">35</text>
<text transform="matrix(1 0 0 1 44 170)" class="st15 st10 st16">36</text>
</svg>
